<svg enable-background="new 0 0 652 652" height="316.227766" viewBox="0 0 652 652" width="316.227766" xmlns="http://www.w3.org/2000/svg"><path d="m227.2 326.1c0-17.3-10.7-32.5-26.9-38.3.7-3.7 1-7.3 1-11.1 0-32.2-26.2-58.4-58.3-58.4-18.9 0-36.3 9-47.3 24.2-5.4-4.2-12-6.5-18.9-6.5-17.1 0-31 13.9-31 31 0 3.8.7 7.4 1.9 10.8-16.1 5.8-27.1 21.2-27.1 38.4 0 17.4 10.8 32.6 27 38.4-.7 3.6-1 7.3-1 11.1 0 32.1 26.1 58.2 58.2 58.2 18.9 0 36.3-9.1 47.2-24.3 5.4 4.3 12 6.6 18.9 6.6 17.1 0 31-13.9 31-31 0-3.8-.7-7.4-1.9-10.8 16.2-5.7 27.2-21.1 27.2-38.3" fill="#fff"/><path d="m101.9 306.9 45.2 20.6 45.6-40c.7-3.3 1-6.5 1-10 0-28.1-22.9-51-51-51-16.8 0-32.5 8.3-42 22.2l-7.6 39.3z" fill="#fed10a"/><path d="m55.1 354.7c-.7 3.3-1 6.7-1 10.2 0 28.2 23 51.1 51.1 51.1 16.9 0 32.7-8.4 42.2-22.3l7.5-39.2-10-19.2-45.4-20.7z" fill="#24bbb1"/><path d="m54.9 276.5 31 7.3 6.8-35.2c-4.2-3.2-9.4-5-14.8-5-13.4 0-24.4 10.9-24.4 24.4-.1 3 .4 5.9 1.4 8.5" fill="#ef5098"/><path d="m52.2 283.9c-13.8 4.5-23.5 17.8-23.5 32.4 0 14.2 8.8 26.9 22 31.9l43.4-39.2-7.9-17z" fill="#17a8e0"/><path d="m155.4 393.6c4.3 3.2 9.4 5.1 14.7 5.1 13.4 0 24.4-10.9 24.4-24.4 0-3-.5-5.8-1.5-8.5l-30.9-7.2z" fill="#93c83e"/><path d="m161.7 350.4 34 7.9c13.9-4.5 23.5-17.8 23.5-32.5 0-14.1-8.8-26.9-22-31.9l-44.5 39z" fill="#0779a1"/><path d="m309.4 362.7 4.1-.4.3 8.4c-10.8 1.5-20.1 2.3-27.8 2.3-10.2 0-17.5-3-21.7-8.9s-6.4-15.2-6.4-27.7c0-25 9.9-37.4 29.8-37.4 9.6 0 16.8 2.7 21.5 8s7.1 13.8 7.1 25.2l-.6 8.1h-47c0 7.9 1.4 13.7 4.3 17.5s7.8 5.7 14.8 5.7c7.2.1 14.3-.2 21.6-.8zm-3.8-30.8c0-8.7-1.4-14.9-4.2-18.5s-7.3-5.4-13.6-5.4-11.1 1.9-14.2 5.7-4.8 9.9-4.9 18.2z"/><path d="m331.1 371.6v-102.1h10.6v102.1z"/><path d="m409 322v35c0 3.6 8.8 4.3 8.8 4.3l-.5 9.4c-7.5 0-13.7.6-17.5-3-8.6 3.8-17 5.3-25.6 5.3-6.5 0-11.5-1.8-14.9-5.6-3.4-3.7-5.1-9-5.1-16 0-6.9 1.7-12 5.2-15.3s9-5.3 16.5-6l22.3-2.1v-6c0-4.8-1-8.3-3.1-10.4s-5-3.1-8.6-3.1h-28v-9.5h27.3c8 0 13.9 1.8 17.5 5.6 3.9 3.7 5.7 9.5 5.7 17.4zm-43.8 28.9c0 8.7 3.6 13.1 10.8 13.1 6.5 0 12.8-1 19-3.2l3.2-1.1v-23.5l-21 2c-4.3.3-7.3 1.6-9.3 3.7s-2.7 5.1-2.7 9z"/><path d="m450.7 308.5c-10.3 0-15.5 3.6-15.5 10.8 0 3.3 1.2 5.7 3.6 7.1s7.8 2.8 16.2 4.3c8.5 1.5 14.4 3.5 17.9 6.2 3.5 2.6 5.2 7.6 5.2 14.9s-2.4 12.7-7.1 16.1-11.5 5.1-20.6 5.1c-5.8 0-25.5-2.2-25.5-2.2l.6-9.3c11.3 1 19.5 1.9 25 1.9s9.7-.9 12.6-2.6 4.4-4.7 4.4-8.8-1.2-6.9-3.7-8.4c-2.4-1.5-7.9-2.9-16.2-4.2-8.4-1.3-14.3-3.2-17.8-5.8-3.5-2.5-5.2-7.3-5.2-14.2s2.4-12 7.3-15.4c4.9-3.3 11-5 18.2-5 5.8 0 25.8 1.5 25.8 1.5v9.3c-10.6-.5-19.2-1.3-25.2-1.3z"/><path d="m529.5 309.8h-22.6v34c0 8.1.6 13.5 1.7 16.1 1.2 2.5 4 3.8 8.5 3.8l12.7-.9.7 8.8c-6.4 1-11.2 1.6-14.5 1.6-7.4 0-12.5-1.8-15.4-5.4s-4.3-10.5-4.3-20.6v-37.4h-10.1v-9.3h10.1v-21.8h10.6v21.7h22.6z"/><path d="m544.4 284.4v-12.3h10.6v12.4zm0 87.2v-71.1h10.6v71.1z"/><path d="m601.3 299c3.1 0 8.5.6 16 1.7l3.4.4-.4 8.6c-7.6-.9-13.2-1.3-16.8-1.3-8 0-13.5 1.9-16.4 5.8-2.9 3.8-4.4 11-4.4 21.4s1.3 17.6 4 21.7 8.3 6.1 16.8 6.1l16.8-1.3.4 8.8c-8.8 1.3-15.4 2-19.8 2-11.1 0-18.8-2.9-23-8.6s-6.4-15.3-6.4-28.8 2.3-23 6.8-28.5c4.7-5.2 12.3-8 23-8z"/></svg>